<svg width="50" height="76" viewBox="0 0 50 76" fill="none" xmlns="http://www.w3.org/2000/svg">
<path d="M21.065 36.9387C22.5312 41.5293 22.3752 46.3065 17.9766 48.2099C8.92968 52.2033 6.90193 41.7159 6.77714 41.1934L21.065 36.9387ZM5.37331 33.9156L18.8501 29.9221C18.2573 26.0033 19.162 22.0845 19.162 17.4566C19.162 11.1865 15.0129 -1.09236 8.39934 0.885701C0.849868 3.12502 -0.241998 13.1646 0.0387679 18.0165C0.413122 22.8683 5.15494 33.2438 5.37331 33.9156ZM43.2455 67.2814C43.1519 67.8412 41.0929 78.2913 32.046 74.3352C27.6786 72.3945 27.4914 67.6173 28.9576 63.0267L43.2455 67.2814ZM49.9527 44.1418C50.2646 39.2899 49.2039 29.213 41.6233 26.9737C35.0409 24.921 30.8918 37.2746 30.8918 43.582C30.8918 48.1726 31.7653 52.0914 31.2349 56.0102L44.6493 60.0036C44.8989 59.3318 49.6095 48.9563 49.9527 44.1418Z" fill="black"/>
</svg>
