<svg width="98" height="68" viewBox="0 0 98 68" fill="none" xmlns="http://www.w3.org/2000/svg">
<path d="M49 63.5C60.7542 63.5 71.6091 60.5313 79.6693 55.4937C87.666 50.4957 93.5 43.015 93.5 34C93.5 24.985 87.666 17.5043 79.6693 12.5063C71.6091 7.46874 60.7542 4.5 49 4.5C37.2458 4.5 26.3909 7.46874 18.3307 12.5063C10.334 17.5043 4.5 24.985 4.5 34C4.5 43.015 10.334 50.4957 18.3307 55.4937C26.3909 60.5313 37.2458 63.5 49 63.5Z" fill="#E6F2FC" stroke="#0DEF75" stroke-width="9"/>
<path d="M40.6006 37.3633H35.9775L35.0986 40H32.2949L37.0586 27.2031H39.502L44.292 40H41.4883L40.6006 37.3633ZM36.6895 35.2275H39.8887L38.2803 30.4375L36.6895 35.2275ZM45.5928 33.707L46.3311 27.2031H53.5029V29.3213H48.4141L48.0977 32.0723C48.7012 31.75 49.3428 31.5889 50.0225 31.5889C51.2412 31.5889 52.1963 31.9668 52.8877 32.7227C53.5791 33.4785 53.9248 34.5361 53.9248 35.8955C53.9248 36.7217 53.749 37.4629 53.3975 38.1191C53.0518 38.7695 52.5537 39.2764 51.9033 39.6396C51.2529 39.9971 50.4854 40.1758 49.6006 40.1758C48.8271 40.1758 48.1094 40.0205 47.4473 39.71C46.7852 39.3936 46.2607 38.9512 45.874 38.3828C45.4932 37.8145 45.291 37.167 45.2676 36.4404H47.7812C47.834 36.9736 48.0186 37.3896 48.335 37.6885C48.6572 37.9814 49.0762 38.1279 49.5918 38.1279C50.166 38.1279 50.6084 37.9229 50.9189 37.5127C51.2295 37.0967 51.3848 36.5107 51.3848 35.7549C51.3848 35.0283 51.2061 34.4717 50.8486 34.085C50.4912 33.6982 49.9844 33.5049 49.3281 33.5049C48.7246 33.5049 48.2354 33.6631 47.8604 33.9795L47.6143 34.208L45.5928 33.707ZM58.1348 32.4766H59.4883C60.1328 32.4766 60.6104 32.3154 60.9209 31.9932C61.2314 31.6709 61.3867 31.2432 61.3867 30.71C61.3867 30.1943 61.2314 29.793 60.9209 29.5059C60.6162 29.2188 60.1943 29.0752 59.6553 29.0752C59.1689 29.0752 58.7617 29.21 58.4336 29.4795C58.1055 29.7432 57.9414 30.0889 57.9414 30.5166H55.4014C55.4014 29.8486 55.5801 29.251 55.9375 28.7236C56.3008 28.1904 56.8047 27.7744 57.4492 27.4756C58.0996 27.1768 58.8145 27.0273 59.5938 27.0273C60.9473 27.0273 62.0078 27.3525 62.7754 28.0029C63.543 28.6475 63.9268 29.5381 63.9268 30.6748C63.9268 31.2607 63.748 31.7998 63.3906 32.292C63.0332 32.7842 62.5645 33.1621 61.9844 33.4258C62.7051 33.6836 63.2412 34.0703 63.5928 34.5859C63.9502 35.1016 64.1289 35.7109 64.1289 36.4141C64.1289 37.5508 63.7129 38.4619 62.8809 39.1475C62.0547 39.833 60.959 40.1758 59.5938 40.1758C58.3164 40.1758 57.2705 39.8389 56.4561 39.165C55.6475 38.4912 55.2432 37.6006 55.2432 36.4932H57.7832C57.7832 36.9736 57.9619 37.3662 58.3193 37.6709C58.6826 37.9756 59.1279 38.1279 59.6553 38.1279C60.2588 38.1279 60.7305 37.9697 61.0703 37.6533C61.416 37.3311 61.5889 36.9062 61.5889 36.3789C61.5889 35.1016 60.8857 34.4629 59.4795 34.4629H58.1348V32.4766Z" fill="black"/>
</svg>
